<svg width="30" height="30" viewBox="0 0 30 30" fill="none" xmlns="http://www.w3.org/2000/svg">
<path d="M22.5 0H7.5C3.37537 0 0 3.37528 0 7.49982V22.5002C0 26.6236 3.37537 30 7.5 30H22.5C26.6246 30 30 26.6236 30 22.5002V7.49982C30 3.37528 26.6246 0 22.5 0ZM27.4999 22.5002C27.4999 25.2564 25.2578 27.4999 22.5 27.4999H7.5C4.74338 27.4999 2.50012 25.2564 2.50012 22.5002V7.49982C2.50012 4.7429 4.74338 2.50006 7.5 2.50006H22.5C25.2578 2.50006 27.4999 4.7429 27.4999 7.49982V22.5002Z" fill="white"/>
</svg>
