<svg width="35" height="30" viewBox="0 0 35 30" fill="none" xmlns="http://www.w3.org/2000/svg">
<path d="M35 3.55154C33.6984 4.15385 32.3116 4.55308 30.8656 4.74692C32.3531 3.81 33.4884 2.33769 34.0222 0.563077C32.6353 1.43538 31.1041 2.05154 29.4722 2.39538C28.1553 0.916154 26.2784 0 24.2309 0C20.2584 0 17.0603 3.40154 17.0603 7.57154C17.0603 8.17154 17.1084 8.74846 17.2266 9.29769C11.2612 8.99077 5.98281 5.97462 2.43687 1.38C1.81781 2.51308 1.45469 3.81 1.45469 5.20615C1.45469 7.82769 2.73438 10.1515 4.64187 11.4969C3.48906 11.4738 2.35812 11.1208 1.4 10.5646C1.4 10.5877 1.4 10.6177 1.4 10.6477C1.4 14.3262 3.88719 17.3815 7.14875 18.0854C6.56469 18.2538 5.92812 18.3346 5.2675 18.3346C4.80813 18.3346 4.34437 18.3069 3.90906 18.2054C4.83875 21.2031 7.47688 23.4069 10.6138 23.4785C8.1725 25.4931 5.07281 26.7069 1.71719 26.7069C1.12875 26.7069 0.564375 26.6792 0 26.6031C3.17844 28.7654 6.94531 30 11.0075 30C24.2113 30 31.43 18.4615 31.43 8.46C31.43 8.12538 31.4191 7.80231 31.4037 7.48154C32.8278 6.41538 34.0244 5.08385 35 3.55154Z" fill="white"/>
</svg>
