<svg width="50" height="64" viewBox="0 0 50 64" fill="none" xmlns="http://www.w3.org/2000/svg">
<path d="M46.93 37.6778L43.51 28.5578C43.0139 27.23 42.0596 26.0749 40.7828 25.2567C39.506 24.4385 37.9715 23.9988 36.3975 24H13.6025C12.0285 23.9988 10.494 24.4385 9.21721 25.2567C7.94039 26.0749 6.98612 27.23 6.49 28.5578L3.07 37.6778C2.16056 38.016 1.3839 38.5857 0.837667 39.3152C0.291433 40.0447 -1.20225e-06 40.9015 0 41.7778V52.8889C0 54.5289 1.01 55.9467 2.5 56.7178V61.7778C2.5 62.3671 2.76339 62.9324 3.23223 63.3491C3.70107 63.7659 4.33696 64 5 64H7.5C8.16304 64 8.79893 63.7659 9.26777 63.3491C9.73661 62.9324 10 62.3671 10 61.7778V57.3333H40V61.7778C40 62.3671 40.2634 62.9324 40.7322 63.3491C41.2011 63.7659 41.837 64 42.5 64H45C45.663 64 46.2989 63.7659 46.7678 63.3491C47.2366 62.9324 47.5 62.3671 47.5 61.7778V56.7178C48.2585 56.3311 48.8889 55.7736 49.3278 55.1014C49.7667 54.4292 49.9986 53.6661 50 52.8889V41.7778C50 40.9015 49.7086 40.0447 49.1623 39.3152C48.6161 38.5857 47.8394 38.016 46.93 37.6778ZM13.6025 28.4444H36.395C37.4725 28.4444 38.4275 29.0533 38.7675 29.9644L41.5325 37.3333H8.4675L11.23 29.9644C11.3959 29.5218 11.7143 29.1367 12.1401 28.8639C12.566 28.5911 13.0776 28.4443 13.6025 28.4444ZM8.75 50.6667C8.25738 50.6665 7.76961 50.5801 7.31455 50.4124C6.85949 50.2447 6.44605 49.999 6.09783 49.6892C5.74961 49.3795 5.47344 49.0118 5.28507 48.6072C5.0967 48.2026 4.99984 47.769 5 47.3311C5.00016 46.8932 5.09736 46.4597 5.28602 46.0552C5.47469 45.6507 5.75115 45.2832 6.0996 44.9736C6.44805 44.6641 6.86168 44.4186 7.31686 44.2512C7.77205 44.0837 8.25988 43.9976 8.7525 43.9978C9.74739 43.9981 10.7014 44.3497 11.4047 44.9752C12.1079 45.6007 12.5028 46.449 12.5025 47.3333C12.5022 48.2177 12.1066 49.0657 11.4029 49.6908C10.6992 50.3159 9.74489 50.667 8.75 50.6667ZM41.25 50.6667C40.7574 50.6665 40.2696 50.5801 39.8146 50.4124C39.3595 50.2447 38.9461 49.999 38.5978 49.6892C38.2496 49.3795 37.9734 49.0118 37.7851 48.6072C37.5967 48.2026 37.4998 47.769 37.5 47.3311C37.5002 46.8932 37.5974 46.4597 37.786 46.0552C37.9747 45.6507 38.2511 45.2832 38.5996 44.9736C38.9481 44.6641 39.3617 44.4186 39.8169 44.2512C40.2721 44.0837 40.7599 43.9976 41.2525 43.9978C42.2474 43.9981 43.2014 44.3497 43.9047 44.9752C44.6079 45.6007 45.0028 46.449 45.0025 47.3333C45.0022 48.2177 44.6066 49.0657 43.9029 49.6908C43.1992 50.3159 42.2449 50.667 41.25 50.6667Z" fill="black"/>
<path d="M37.5 4.64286C37.5 5.62902 36.7239 6.42857 35.7666 6.42857C35.7558 6.42857 35.7469 6.42292 35.7361 6.42275L33.5468 18.829C33.4265 19.5045 32.8545 20 32.1828 20H17.8562C17.1863 20 16.6116 19.5063 16.492 18.8272L14.3032 6.42411C14.2923 6.42411 14.2832 6.42857 14.2334 6.42857C13.2761 6.42857 12.5 5.62902 12.5 4.64286C12.5 3.6567 13.3151 2.85714 14.2334 2.85714C15.1517 2.85714 15.9668 3.6567 15.9668 4.64286C15.9668 5.04455 15.8142 5.39688 15.5969 5.69509L19.481 8.89598C20.1704 9.46429 21.1927 9.23277 21.5875 8.4192L24.0836 3.27634C23.5938 2.96161 23.2471 2.42589 23.2471 1.78571C23.2471 0.799554 24.0618 0 25.0195 0C25.9772 0 26.7139 0.799554 26.7139 1.78571C26.7139 2.42589 26.3688 2.96161 25.8775 3.27679L28.3736 8.41964C28.7685 9.23304 29.7911 9.46429 30.4802 8.89643L34.3643 5.69554C34.1849 5.39732 34.0332 5.00446 34.0332 4.64286C34.0332 3.65625 34.8089 2.85714 35.7666 2.85714C36.7243 2.85714 37.5 3.65625 37.5 4.64286Z" fill="black"/>
</svg>
