<svg width="40" height="23" viewBox="0 0 40 23" fill="none" xmlns="http://www.w3.org/2000/svg">
<path fill-rule="evenodd" clip-rule="evenodd" d="M34.4257 14.3932C35.7526 15.6887 37.153 16.9075 38.343 18.3336C38.8687 18.9673 39.3664 19.6212 39.7472 20.3567C40.2867 21.4022 39.798 22.5526 38.8606 22.6151L33.0333 22.6124C31.5303 22.7372 30.3313 22.1321 29.3232 21.1045C28.5164 20.2827 27.7692 19.4081 26.9935 18.5586C26.6754 18.2113 26.3425 17.8846 25.9448 17.6264C25.1493 17.11 24.4588 17.2681 24.0042 18.0978C23.5412 18.9417 23.4362 19.8761 23.3907 20.8165C23.3283 22.1887 22.9135 22.5495 21.5352 22.6123C18.5895 22.7512 15.7938 22.3056 13.1968 20.8196C10.9071 19.5095 9.13157 17.6601 7.58617 15.5664C4.57723 11.4896 2.27298 7.00973 0.202014 2.40439C-0.264145 1.3668 0.0767671 0.809831 1.2216 0.790117C3.12263 0.753187 5.02341 0.755816 6.92668 0.787489C7.69932 0.798792 8.21082 1.24195 8.50915 1.97188C9.53767 4.50085 10.7962 6.90695 12.3759 9.13721C12.7966 9.73098 13.2255 10.3247 13.8364 10.7427C14.5122 11.2054 15.0267 11.052 15.3446 10.2993C15.5463 9.82192 15.6347 9.30779 15.6801 8.79656C15.8307 7.03772 15.8506 5.2819 15.5864 3.52924C15.4243 2.43541 14.8081 1.7273 13.7167 1.52031C13.1597 1.41477 13.2426 1.20752 13.5123 0.889605C13.9807 0.341307 14.4212 0 15.2994 0H21.8852C22.922 0.204626 23.1522 0.670391 23.2941 1.71363L23.2998 9.02905C23.2885 9.43291 23.5015 10.6314 24.229 10.8987C24.8112 11.089 25.1949 10.6232 25.5442 10.254C27.1211 8.5805 28.2464 6.60271 29.2518 4.55474C29.698 3.65423 30.0816 2.71902 30.4534 1.7846C30.7289 1.09121 31.1611 0.750033 31.9422 0.765146L38.2806 0.770797C38.4685 0.770797 38.6587 0.773558 38.8407 0.804705C39.9088 0.986726 40.2015 1.44618 39.8716 2.48916C39.3518 4.12551 38.3405 5.48916 37.3517 6.85912C36.2947 8.32172 35.1642 9.73426 34.1159 11.2055C33.1529 12.5491 33.2294 13.2263 34.4257 14.3932Z" fill="white"/>
</svg>
